<svg width="25" height="25" viewBox="0 0 25 25" fill="none" xmlns="http://www.w3.org/2000/svg">
<path d="M22.1772 9.44902C22.0482 9.07102 21.7072 8.80402 21.3092 8.77302L15.6082 8.32002L13.1412 2.85902C12.9802 2.50002 12.6232 2.27002 12.2302 2.27002C11.8372 2.27002 11.4802 2.50002 11.3192 2.85802L8.85219 8.32002L3.15119 8.77302C2.76019 8.80402 2.42319 9.06102 2.29019 9.43002C2.15719 9.79902 2.25119 10.212 2.53219 10.486L6.74519 14.593L5.25519 21.045C5.16319 21.444 5.32419 21.859 5.66119 22.092C5.83319 22.21 6.03119 22.27 6.23019 22.27C6.42319 22.27 6.61719 22.214 6.78519 22.102L12.2302 18.472L17.6752 22.102C18.0232 22.334 18.4802 22.325 18.8202 22.078C19.1582 21.831 19.3072 21.398 19.1922 20.996L17.3632 14.596L21.8992 10.514C22.1962 10.246 22.3052 9.82802 22.1772 9.44902Z" fill="#FFB700"/>
</svg>
